<svg width="138" height="36" viewBox="0 0 138 36" fill="none" xmlns="http://www.w3.org/2000/svg">
<rect width="138" height="36" rx="4" fill="#E3E3E3"/>
<path d="M17.4091 24V12.3636H21.4773C22.2879 12.3636 22.9564 12.5038 23.483 12.7841C24.0095 13.0606 24.4015 13.4337 24.6591 13.9034C24.9167 14.3693 25.0455 14.8864 25.0455 15.4545C25.0455 15.9545 24.9564 16.3674 24.7784 16.6932C24.6042 17.0189 24.3731 17.2765 24.0852 17.4659C23.8011 17.6553 23.4924 17.7955 23.1591 17.8864V18C23.5152 18.0227 23.8731 18.1477 24.233 18.375C24.5928 18.6023 24.8939 18.928 25.1364 19.3523C25.3788 19.7765 25.5 20.2955 25.5 20.9091C25.5 21.4924 25.3674 22.017 25.1023 22.483C24.8371 22.9489 24.4186 23.3182 23.8466 23.5909C23.2746 23.8636 22.5303 24 21.6136 24H17.4091ZM18.8182 22.75H21.6136C22.5341 22.75 23.1875 22.572 23.5739 22.2159C23.964 21.8561 24.1591 21.4205 24.1591 20.9091C24.1591 20.5152 24.0587 20.1515 23.858 19.8182C23.6572 19.4811 23.3712 19.2121 23 19.0114C22.6288 18.8068 22.1894 18.7045 21.6818 18.7045H18.8182V22.75ZM18.8182 17.4773H21.4318C21.8561 17.4773 22.2386 17.3939 22.5795 17.2273C22.9242 17.0606 23.197 16.8258 23.3977 16.5227C23.6023 16.2197 23.7045 15.8636 23.7045 15.4545C23.7045 14.9432 23.5265 14.5095 23.1705 14.1534C22.8144 13.7936 22.25 13.6136 21.4773 13.6136H18.8182V17.4773ZM30.2017 24.2045C29.6487 24.2045 29.1468 24.1004 28.696 23.892C28.2453 23.6799 27.8873 23.375 27.6222 22.9773C27.357 22.5758 27.2244 22.0909 27.2244 21.5227C27.2244 21.0227 27.3229 20.6174 27.5199 20.3068C27.7169 19.9924 27.9801 19.7462 28.3097 19.5682C28.6392 19.3902 29.0028 19.2576 29.4006 19.1705C29.8021 19.0795 30.2055 19.0076 30.6108 18.9545C31.1411 18.8864 31.571 18.8352 31.9006 18.8011C32.2339 18.7633 32.4763 18.7008 32.6278 18.6136C32.7831 18.5265 32.8608 18.375 32.8608 18.1591V18.1136C32.8608 17.553 32.7074 17.1174 32.4006 16.8068C32.0975 16.4962 31.6373 16.3409 31.0199 16.3409C30.3797 16.3409 29.8778 16.4811 29.5142 16.7614C29.1506 17.0417 28.8949 17.3409 28.7472 17.6591L27.4744 17.2045C27.7017 16.6742 28.0047 16.2614 28.3835 15.9659C28.7661 15.6667 29.1828 15.4583 29.6335 15.3409C30.0881 15.2197 30.535 15.1591 30.9744 15.1591C31.2547 15.1591 31.5767 15.1932 31.9403 15.2614C32.3078 15.3258 32.6619 15.4602 33.0028 15.6648C33.3475 15.8693 33.6335 16.178 33.8608 16.5909C34.0881 17.0038 34.2017 17.5568 34.2017 18.25V24H32.8608V22.8182H32.7926C32.7017 23.0076 32.5502 23.2102 32.3381 23.4261C32.1259 23.642 31.8438 23.8258 31.4915 23.9773C31.1392 24.1288 30.7093 24.2045 30.2017 24.2045ZM30.4062 23C30.9366 23 31.3835 22.8958 31.7472 22.6875C32.1146 22.4792 32.3911 22.2102 32.5767 21.8807C32.7661 21.5511 32.8608 21.2045 32.8608 20.8409V19.6136C32.804 19.6818 32.679 19.7443 32.4858 19.8011C32.2964 19.8542 32.0767 19.9015 31.8267 19.9432C31.5805 19.9811 31.34 20.0152 31.1051 20.0455C30.8741 20.072 30.6866 20.0947 30.5426 20.1136C30.1941 20.1591 29.8684 20.233 29.5653 20.3352C29.2661 20.4337 29.0237 20.5833 28.8381 20.7841C28.6563 20.9811 28.5653 21.25 28.5653 21.5909C28.5653 22.0568 28.7377 22.4091 29.0824 22.6477C29.4309 22.8826 29.8722 23 30.4062 23ZM40.1946 24.1818C39.3764 24.1818 38.6719 23.9886 38.081 23.6023C37.4901 23.2159 37.0355 22.6837 36.7173 22.0057C36.3991 21.3277 36.2401 20.553 36.2401 19.6818C36.2401 18.7955 36.4029 18.0133 36.7287 17.3352C37.0582 16.6534 37.5166 16.1212 38.1037 15.7386C38.6946 15.3523 39.384 15.1591 40.1719 15.1591C40.7855 15.1591 41.3385 15.2727 41.831 15.5C42.3234 15.7273 42.7268 16.0455 43.0412 16.4545C43.3556 16.8636 43.5507 17.3409 43.6264 17.8864H42.2855C42.1832 17.4886 41.956 17.1364 41.6037 16.8295C41.2552 16.5189 40.7855 16.3636 40.1946 16.3636C39.6719 16.3636 39.2135 16.5 38.8196 16.7727C38.4295 17.0417 38.1245 17.4223 37.9048 17.9148C37.6889 18.4034 37.581 18.9773 37.581 19.6364C37.581 20.3106 37.687 20.8977 37.8991 21.3977C38.1151 21.8977 38.4181 22.286 38.8082 22.5625C39.2022 22.839 39.6643 22.9773 40.1946 22.9773C40.5431 22.9773 40.8594 22.9167 41.1435 22.7955C41.4276 22.6742 41.6681 22.5 41.8651 22.2727C42.062 22.0455 42.2022 21.7727 42.2855 21.4545H43.6264C43.5507 21.9697 43.3632 22.4337 43.0639 22.8466C42.7685 23.2557 42.3764 23.5814 41.8878 23.8239C41.4029 24.0625 40.8385 24.1818 40.1946 24.1818ZM46.8366 20.8182L46.8139 19.1591H47.0866L50.9048 15.2727H52.5639L48.4957 19.3864H48.3821L46.8366 20.8182ZM45.5866 24V12.3636H46.9276V24H45.5866ZM51.1321 24L47.723 19.6818L48.6776 18.75L52.8366 24H51.1321ZM62.5852 15.2727V16.4091H58.0625V15.2727H62.5852ZM59.3807 13.1818H60.7216V21.5C60.7216 21.8788 60.7765 22.1629 60.8864 22.3523C61 22.5379 61.1439 22.6629 61.3182 22.7273C61.4962 22.7879 61.6837 22.8182 61.8807 22.8182C62.0284 22.8182 62.1496 22.8106 62.2443 22.7955C62.339 22.7765 62.4148 22.7614 62.4716 22.75L62.7443 23.9545C62.6534 23.9886 62.5265 24.0227 62.3636 24.0568C62.2008 24.0947 61.9943 24.1136 61.7443 24.1136C61.3655 24.1136 60.9943 24.0322 60.6307 23.8693C60.2708 23.7064 59.9716 23.4583 59.733 23.125C59.4981 22.7917 59.3807 22.3712 59.3807 21.8636V13.1818ZM68.054 24.1818C67.2661 24.1818 66.5748 23.9943 65.9801 23.6193C65.3892 23.2443 64.9271 22.7197 64.5938 22.0455C64.2642 21.3712 64.0994 20.5833 64.0994 19.6818C64.0994 18.7727 64.2642 17.9792 64.5938 17.3011C64.9271 16.6231 65.3892 16.0966 65.9801 15.7216C66.5748 15.3466 67.2661 15.1591 68.054 15.1591C68.8419 15.1591 69.5313 15.3466 70.1222 15.7216C70.7169 16.0966 71.179 16.6231 71.5085 17.3011C71.8419 17.9792 72.0085 18.7727 72.0085 19.6818C72.0085 20.5833 71.8419 21.3712 71.5085 22.0455C71.179 22.7197 70.7169 23.2443 70.1222 23.6193C69.5313 23.9943 68.8419 24.1818 68.054 24.1818ZM68.054 22.9773C68.6525 22.9773 69.1449 22.8239 69.5312 22.517C69.9176 22.2102 70.2036 21.8068 70.3892 21.3068C70.5748 20.8068 70.6676 20.2652 70.6676 19.6818C70.6676 19.0985 70.5748 18.5549 70.3892 18.0511C70.2036 17.5473 69.9176 17.1402 69.5312 16.8295C69.1449 16.5189 68.6525 16.3636 68.054 16.3636C67.4555 16.3636 66.9631 16.5189 66.5767 16.8295C66.1903 17.1402 65.9044 17.5473 65.7188 18.0511C65.5331 18.5549 65.4403 19.0985 65.4403 19.6818C65.4403 20.2652 65.5331 20.8068 65.7188 21.3068C65.9044 21.8068 66.1903 22.2102 66.5767 22.517C66.9631 22.8239 67.4555 22.9773 68.054 22.9773ZM78.7372 24V12.3636H80.1463V17.5455H86.3509V12.3636H87.7599V24H86.3509V18.7955H80.1463V24H78.7372ZM93.9446 24.1818C93.1567 24.1818 92.4654 23.9943 91.8707 23.6193C91.2798 23.2443 90.8177 22.7197 90.4844 22.0455C90.1548 21.3712 89.9901 20.5833 89.9901 19.6818C89.9901 18.7727 90.1548 17.9792 90.4844 17.3011C90.8177 16.6231 91.2798 16.0966 91.8707 15.7216C92.4654 15.3466 93.1567 15.1591 93.9446 15.1591C94.7325 15.1591 95.4219 15.3466 96.0128 15.7216C96.6075 16.0966 97.0696 16.6231 97.3991 17.3011C97.7325 17.9792 97.8991 18.7727 97.8991 19.6818C97.8991 20.5833 97.7325 21.3712 97.3991 22.0455C97.0696 22.7197 96.6075 23.2443 96.0128 23.6193C95.4219 23.9943 94.7325 24.1818 93.9446 24.1818ZM93.9446 22.9773C94.5431 22.9773 95.0355 22.8239 95.4219 22.517C95.8082 22.2102 96.0942 21.8068 96.2798 21.3068C96.4654 20.8068 96.5582 20.2652 96.5582 19.6818C96.5582 19.0985 96.4654 18.5549 96.2798 18.0511C96.0942 17.5473 95.8082 17.1402 95.4219 16.8295C95.0355 16.5189 94.5431 16.3636 93.9446 16.3636C93.3461 16.3636 92.8537 16.5189 92.4673 16.8295C92.081 17.1402 91.795 17.5473 91.6094 18.0511C91.4238 18.5549 91.331 19.0985 91.331 19.6818C91.331 20.2652 91.4238 20.8068 91.6094 21.3068C91.795 21.8068 92.081 22.2102 92.4673 22.517C92.8537 22.8239 93.3461 22.9773 93.9446 22.9773ZM99.946 24V15.2727H101.241V16.6364H101.355C101.537 16.1705 101.83 15.8087 102.236 15.5511C102.641 15.2898 103.128 15.1591 103.696 15.1591C104.272 15.1591 104.751 15.2898 105.134 15.5511C105.52 15.8087 105.821 16.1705 106.037 16.6364H106.128C106.351 16.1856 106.687 15.8277 107.134 15.5625C107.58 15.2936 108.116 15.1591 108.741 15.1591C109.522 15.1591 110.16 15.4034 110.656 15.892C111.152 16.3769 111.401 17.1326 111.401 18.1591V24H110.06V18.1591C110.06 17.5152 109.884 17.0549 109.531 16.7784C109.179 16.5019 108.764 16.3636 108.287 16.3636C107.673 16.3636 107.198 16.5492 106.861 16.9205C106.524 17.2879 106.355 17.7538 106.355 18.3182V24H104.991V18.0227C104.991 17.5265 104.83 17.1269 104.509 16.8239C104.187 16.517 103.772 16.3636 103.264 16.3636C102.916 16.3636 102.59 16.4564 102.287 16.642C101.988 16.8277 101.745 17.0852 101.56 17.4148C101.378 17.7405 101.287 18.1174 101.287 18.5455V24H99.946ZM117.511 24.1818C116.67 24.1818 115.945 23.9962 115.335 23.625C114.729 23.25 114.261 22.7273 113.932 22.0568C113.606 21.3826 113.443 20.5985 113.443 19.7045C113.443 18.8106 113.606 18.0227 113.932 17.3409C114.261 16.6553 114.72 16.1212 115.307 15.7386C115.898 15.3523 116.587 15.1591 117.375 15.1591C117.83 15.1591 118.278 15.2348 118.722 15.3864C119.165 15.5379 119.568 15.7841 119.932 16.125C120.295 16.4621 120.585 16.9091 120.801 17.4659C121.017 18.0227 121.125 18.7083 121.125 19.5227V20.0909H114.398V18.9318H119.761C119.761 18.4394 119.663 18 119.466 17.6136C119.273 17.2273 118.996 16.9223 118.636 16.6989C118.28 16.4754 117.86 16.3636 117.375 16.3636C116.841 16.3636 116.379 16.4962 115.989 16.7614C115.602 17.0227 115.305 17.3636 115.097 17.7841C114.888 18.2045 114.784 18.6553 114.784 19.1364V19.9091C114.784 20.5682 114.898 21.1269 115.125 21.5852C115.356 22.0398 115.676 22.3864 116.085 22.625C116.494 22.8598 116.97 22.9773 117.511 22.9773C117.864 22.9773 118.182 22.928 118.466 22.8295C118.754 22.7273 119.002 22.5758 119.21 22.375C119.419 22.1705 119.58 21.9167 119.693 21.6136L120.989 21.9773C120.852 22.4167 120.623 22.803 120.301 23.1364C119.979 23.4659 119.581 23.7235 119.108 23.9091C118.634 24.0909 118.102 24.1818 117.511 24.1818Z" fill="#656565"/>
</svg>
