<svg width="99" height="30" viewBox="0 0 99 30" fill="none" xmlns="http://www.w3.org/2000/svg">
<rect width="99" height="30" rx="4" fill="#FFD643"/>
<path d="M10.0085 9.81818L12.8423 18.1108H12.9567L15.7905 9.81818H17.451L13.7869 20H12.0121L8.34801 9.81818H10.0085ZM18.802 20V12.3636H20.2885V20H18.802ZM19.5527 11.1854C19.2942 11.1854 19.0721 11.0992 18.8865 10.9268C18.7042 10.7512 18.6131 10.5424 18.6131 10.3004C18.6131 10.0552 18.7042 9.84635 18.8865 9.67401C19.0721 9.49834 19.2942 9.41051 19.5527 9.41051C19.8113 9.41051 20.0317 9.49834 20.214 9.67401C20.3996 9.84635 20.4924 10.0552 20.4924 10.3004C20.4924 10.5424 20.3996 10.7512 20.214 10.9268C20.0317 11.0992 19.8113 11.1854 19.5527 11.1854ZM25.5795 20.1541C24.8272 20.1541 24.1792 19.9934 23.6357 19.6719C23.0954 19.3471 22.6778 18.8913 22.3828 18.3047C22.0911 17.7147 21.9453 17.0237 21.9453 16.2315C21.9453 15.4493 22.0911 14.7599 22.3828 14.1634C22.6778 13.5668 23.0888 13.1011 23.6158 12.7663C24.1461 12.4316 24.7659 12.2642 25.4751 12.2642C25.906 12.2642 26.3236 12.3355 26.728 12.478C27.1323 12.6205 27.4953 12.8442 27.8168 13.1491C28.1383 13.4541 28.3918 13.8501 28.5774 14.3374C28.763 14.8213 28.8558 15.4096 28.8558 16.1023V16.6293H22.7855V15.5156H27.3991C27.3991 15.1245 27.3196 14.7782 27.1605 14.4766C27.0014 14.1716 26.7777 13.9313 26.4893 13.7557C26.2043 13.58 25.8696 13.4922 25.4851 13.4922C25.0675 13.4922 24.7029 13.5949 24.3913 13.8004C24.0831 14.0026 23.8445 14.2678 23.6754 14.5959C23.5097 14.9207 23.4268 15.2737 23.4268 15.6548V16.5249C23.4268 17.0353 23.5163 17.4695 23.6953 17.8274C23.8776 18.1854 24.1312 18.4588 24.456 18.6477C24.7808 18.8333 25.1603 18.9261 25.5945 18.9261C25.8762 18.9261 26.133 18.8864 26.3651 18.8068C26.5971 18.724 26.7976 18.6013 26.9666 18.4389C27.1357 18.2765 27.2649 18.076 27.3544 17.8374L28.7614 18.0909C28.6487 18.5052 28.4465 18.8681 28.1548 19.1797C27.8665 19.4879 27.5036 19.7282 27.0661 19.9006C26.6319 20.0696 26.1364 20.1541 25.5795 20.1541ZM32.147 20L29.8999 12.3636H31.4361L32.9325 17.9716H33.0071L34.5085 12.3636H36.0447L37.5362 17.9467H37.6108L39.0973 12.3636H40.6335L38.3913 20H36.875L35.3239 14.4865H35.2095L33.6584 20H32.147ZM49.1648 20H45.8686V9.81818H49.2692C50.2668 9.81818 51.1236 10.022 51.8395 10.4297C52.5554 10.834 53.1039 11.4157 53.4851 12.1747C53.8696 12.9304 54.0618 13.8369 54.0618 14.8942C54.0618 15.9548 53.8679 16.8662 53.4801 17.6286C53.0956 18.3909 52.5388 18.9775 51.8097 19.3885C51.0805 19.7962 50.1989 20 49.1648 20ZM47.4048 18.6577H49.0803C49.8558 18.6577 50.5005 18.5118 51.0142 18.2202C51.5279 17.9252 51.9124 17.4993 52.1676 16.9425C52.4228 16.3823 52.5504 15.6996 52.5504 14.8942C52.5504 14.0954 52.4228 13.4176 52.1676 12.8608C51.9157 12.304 51.5395 11.8814 51.0391 11.593C50.5386 11.3047 49.9171 11.1605 49.1747 11.1605H47.4048V18.6577ZM59.144 20.1541C58.3916 20.1541 57.7437 19.9934 57.2001 19.6719C56.6599 19.3471 56.2422 18.8913 55.9473 18.3047C55.6556 17.7147 55.5098 17.0237 55.5098 16.2315C55.5098 15.4493 55.6556 14.7599 55.9473 14.1634C56.2422 13.5668 56.6532 13.1011 57.1802 12.7663C57.7105 12.4316 58.3303 12.2642 59.0396 12.2642C59.4705 12.2642 59.8881 12.3355 60.2924 12.478C60.6968 12.6205 61.0597 12.8442 61.3812 13.1491C61.7027 13.4541 61.9563 13.8501 62.1419 14.3374C62.3275 14.8213 62.4203 15.4096 62.4203 16.1023V16.6293H56.35V15.5156H60.9636C60.9636 15.1245 60.8841 14.7782 60.725 14.4766C60.5659 14.1716 60.3422 13.9313 60.0538 13.7557C59.7688 13.58 59.434 13.4922 59.0495 13.4922C58.6319 13.4922 58.2673 13.5949 57.9558 13.8004C57.6475 14.0026 57.4089 14.2678 57.2399 14.5959C57.0742 14.9207 56.9913 15.2737 56.9913 15.6548V16.5249C56.9913 17.0353 57.0808 17.4695 57.2598 17.8274C57.4421 18.1854 57.6956 18.4588 58.0204 18.6477C58.3452 18.8333 58.7247 18.9261 59.1589 18.9261C59.4406 18.9261 59.6975 18.8864 59.9295 18.8068C60.1615 18.724 60.362 18.6013 60.5311 18.4389C60.7001 18.2765 60.8294 18.076 60.9189 17.8374L62.3258 18.0909C62.2131 18.5052 62.0109 18.8681 61.7193 19.1797C61.4309 19.4879 61.068 19.7282 60.6305 19.9006C60.1963 20.0696 59.7008 20.1541 59.144 20.1541ZM67.6342 12.3636V13.5568H63.4631V12.3636H67.6342ZM64.5817 10.5341H66.0682V17.7578C66.0682 18.0462 66.1113 18.2633 66.1974 18.4091C66.2836 18.5516 66.3946 18.6494 66.5305 18.7024C66.6697 18.7521 66.8205 18.777 66.983 18.777C67.1023 18.777 67.2067 18.7687 67.2962 18.7521C67.3857 18.7356 67.4553 18.7223 67.505 18.7124L67.7734 19.9403C67.6873 19.9735 67.5646 20.0066 67.4055 20.0398C67.2464 20.0762 67.0476 20.0961 66.8089 20.0994C66.4179 20.1061 66.0533 20.0365 65.7152 19.8906C65.3771 19.7448 65.1037 19.5194 64.8949 19.2145C64.6861 18.9096 64.5817 18.5268 64.5817 18.0661V10.5341ZM71.5009 20.169C71.017 20.169 70.5795 20.0795 70.1884 19.9006C69.7973 19.7183 69.4874 19.4548 69.2587 19.1101C69.0333 18.7654 68.9206 18.3428 68.9206 17.8423C68.9206 17.4115 69.0035 17.0568 69.1692 16.7784C69.3349 16.5 69.5587 16.2796 69.8404 16.1172C70.1221 15.9548 70.437 15.8321 70.785 15.7493C71.133 15.6664 71.4876 15.6035 71.8489 15.5604C72.3063 15.5073 72.6775 15.4643 72.9625 15.4311C73.2476 15.3946 73.4547 15.3366 73.584 15.2571C73.7132 15.1776 73.7779 15.0483 73.7779 14.8693V14.8345C73.7779 14.4003 73.6552 14.0639 73.41 13.8253C73.168 13.5866 72.8068 13.4673 72.3262 13.4673C71.8257 13.4673 71.4313 13.5784 71.1429 13.8004C70.8579 14.0192 70.6607 14.2628 70.5513 14.5312L69.1543 14.2131C69.32 13.7491 69.562 13.3745 69.8801 13.0895C70.2016 12.8011 70.5712 12.5923 70.9888 12.4631C71.4064 12.3305 71.8456 12.2642 72.3063 12.2642C72.6112 12.2642 72.9344 12.3007 73.2757 12.3736C73.6204 12.4432 73.9419 12.5724 74.2402 12.7614C74.5418 12.9503 74.7888 13.2204 74.981 13.5717C75.1732 13.9197 75.2694 14.3722 75.2694 14.929V20H73.8176V18.956H73.758C73.6619 19.1482 73.5177 19.3371 73.3255 19.5227C73.1332 19.7083 72.8863 19.8625 72.5847 19.9851C72.2831 20.1077 71.9218 20.169 71.5009 20.169ZM71.824 18.9759C72.235 18.9759 72.5864 18.8946 72.878 18.7322C73.173 18.5698 73.3967 18.3577 73.5492 18.0959C73.705 17.8307 73.7828 17.5473 73.7828 17.2457V16.2614C73.7298 16.3144 73.6271 16.3641 73.4746 16.4105C73.3255 16.4536 73.1548 16.4917 72.9625 16.5249C72.7703 16.5547 72.583 16.5829 72.4007 16.6094C72.2185 16.6326 72.066 16.6525 71.9434 16.669C71.655 16.7055 71.3915 16.7668 71.1529 16.853C70.9176 16.9392 70.7286 17.0634 70.5861 17.2259C70.4469 17.3849 70.3773 17.5971 70.3773 17.8622C70.3773 18.2301 70.5132 18.5085 70.785 18.6974C71.0568 18.883 71.4031 18.9759 71.824 18.9759ZM77.2493 20V12.3636H78.7358V20H77.2493ZM78 11.1854C77.7415 11.1854 77.5194 11.0992 77.3338 10.9268C77.1515 10.7512 77.0604 10.5424 77.0604 10.3004C77.0604 10.0552 77.1515 9.84635 77.3338 9.67401C77.5194 9.49834 77.7415 9.41051 78 9.41051C78.2585 9.41051 78.4789 9.49834 78.6612 9.67401C78.8468 9.84635 78.9396 10.0552 78.9396 10.3004C78.9396 10.5424 78.8468 10.7512 78.6612 10.9268C78.4789 11.0992 78.2585 11.1854 78 11.1854ZM82.2221 9.81818V20H80.7356V9.81818H82.2221ZM89.9442 14.228L88.5969 14.4666C88.5406 14.2943 88.4511 14.1302 88.3285 13.9744C88.2092 13.8187 88.0468 13.6911 87.8413 13.5916C87.6358 13.4922 87.3789 13.4425 87.0707 13.4425C86.6497 13.4425 86.2984 13.5369 86.0167 13.7259C85.735 13.9115 85.5941 14.1518 85.5941 14.4467C85.5941 14.7019 85.6886 14.9074 85.8775 15.0632C86.0664 15.219 86.3713 15.3466 86.7923 15.446L88.0053 15.7244C88.708 15.8868 89.2317 16.1371 89.5763 16.4751C89.921 16.8132 90.0934 17.2524 90.0934 17.7926C90.0934 18.25 89.9608 18.6577 89.6957 19.0156C89.4338 19.3703 89.0676 19.6487 88.5969 19.8509C88.1296 20.053 87.5877 20.1541 86.9712 20.1541C86.1161 20.1541 85.4184 19.9718 84.8782 19.6072C84.3379 19.2393 84.0065 18.7173 83.8839 18.0412L85.3207 17.8224C85.4102 18.197 85.5941 18.4804 85.8725 18.6726C86.1509 18.8615 86.5138 18.956 86.9613 18.956C87.4485 18.956 87.8379 18.8549 88.1296 18.6527C88.4213 18.4472 88.5671 18.197 88.5671 17.902C88.5671 17.6634 88.4776 17.4628 88.2987 17.3004C88.123 17.138 87.8529 17.0154 87.4883 16.9325L86.1957 16.6491C85.4831 16.4867 84.9561 16.2282 84.6147 15.8736C84.2766 15.5189 84.1076 15.0698 84.1076 14.5263C84.1076 14.0755 84.2335 13.6811 84.4854 13.343C84.7373 13.005 85.0853 12.7415 85.5295 12.5526C85.9736 12.3603 86.4824 12.2642 87.0558 12.2642C87.881 12.2642 88.5307 12.4432 89.0046 12.8011C89.4786 13.1558 89.7918 13.6314 89.9442 14.228Z" fill="#161616"/>
</svg>
