<svg width="20" height="20" viewBox="0 0 20 20" fill="none" xmlns="http://www.w3.org/2000/svg">
<path d="M15.8332 9.16667H6.52486L10.5915 5.1C10.9165 4.775 10.9165 4.24167 10.5915 3.91667C10.5144 3.83942 10.4229 3.77813 10.322 3.73631C10.2212 3.69449 10.1132 3.67297 10.004 3.67297C9.89488 3.67297 9.78681 3.69449 9.686 3.73631C9.58519 3.77813 9.49362 3.83942 9.41652 3.91667L3.92486 9.40834C3.8476 9.48543 3.78631 9.577 3.7445 9.67782C3.70268 9.77863 3.68115 9.8867 3.68115 9.99584C3.68115 10.105 3.70268 10.213 3.7445 10.3139C3.78631 10.4147 3.8476 10.5062 3.92486 10.5833L9.41652 16.075C9.49367 16.1522 9.58527 16.2134 9.68607 16.2551C9.78687 16.2969 9.89491 16.3184 10.004 16.3184C10.1131 16.3184 10.2212 16.2969 10.322 16.2551C10.4228 16.2134 10.5144 16.1522 10.5915 16.075C10.6687 15.9979 10.7299 15.9063 10.7716 15.8055C10.8134 15.7047 10.8349 15.5966 10.8349 15.4875C10.8349 15.3784 10.8134 15.2704 10.7716 15.1695C10.7299 15.0687 10.6687 14.9772 10.5915 14.9L6.52486 10.8333H15.8332C16.2915 10.8333 16.6665 10.4583 16.6665 10C16.6665 9.54167 16.2915 9.16667 15.8332 9.16667Z" fill="black"/>
</svg>
