<svg width="87" height="42" viewBox="0 0 87 42" fill="none" xmlns="http://www.w3.org/2000/svg">
<rect width="87" height="42" rx="8" fill="#FFD643"/>
<path d="M26.6719 18.4929C26.6188 18.0223 26.4001 17.6577 26.0156 17.3991C25.6312 17.1373 25.1473 17.0064 24.5639 17.0064C24.1463 17.0064 23.785 17.0727 23.4801 17.2053C23.1752 17.3345 22.9382 17.5135 22.7692 17.7422C22.6035 17.9676 22.5206 18.2244 22.5206 18.5128C22.5206 18.7547 22.5769 18.9635 22.6896 19.1392C22.8056 19.3149 22.9564 19.4624 23.142 19.5817C23.331 19.6977 23.5331 19.7955 23.7486 19.875C23.964 19.9512 24.1712 20.0142 24.37 20.0639L25.3643 20.3224C25.6892 20.402 26.0223 20.5097 26.3636 20.6456C26.705 20.7815 27.0215 20.9605 27.3132 21.1825C27.6049 21.4046 27.8402 21.6797 28.0192 22.0078C28.2015 22.3359 28.2926 22.7287 28.2926 23.1861C28.2926 23.7628 28.1435 24.2749 27.8452 24.7223C27.5502 25.1697 27.121 25.5227 26.5575 25.7812C25.9974 26.0398 25.3196 26.169 24.5241 26.169C23.7618 26.169 23.1023 26.0481 22.5455 25.8061C21.9886 25.5642 21.5528 25.2211 21.2379 24.777C20.9231 24.3295 20.7491 23.7992 20.7159 23.1861H22.2571C22.2869 23.554 22.4063 23.8606 22.6151 24.1058C22.8272 24.3478 23.0973 24.5284 23.4254 24.6477C23.7569 24.7637 24.1198 24.8217 24.5142 24.8217C24.9484 24.8217 25.3345 24.7538 25.6726 24.6179C26.014 24.4787 26.2824 24.2865 26.478 24.0412C26.6735 23.7926 26.7713 23.5026 26.7713 23.1712C26.7713 22.8696 26.6851 22.6226 26.5128 22.4304C26.3438 22.2382 26.1134 22.0791 25.8217 21.9531C25.5334 21.8272 25.2069 21.7161 24.8423 21.62L23.6392 21.2919C22.8239 21.0698 22.1776 20.7434 21.7003 20.3125C21.2263 19.8816 20.9893 19.3116 20.9893 18.6023C20.9893 18.0156 21.1484 17.5036 21.4666 17.0661C21.7848 16.6286 22.2157 16.2888 22.7592 16.0469C23.3028 15.8016 23.916 15.679 24.5987 15.679C25.2881 15.679 25.8963 15.8 26.4233 16.0419C26.9536 16.2839 27.3712 16.617 27.6761 17.0412C27.9811 17.4621 28.1402 17.946 28.1534 18.4929H26.6719ZM33.3002 26.1541C32.5479 26.1541 31.8999 25.9934 31.3564 25.6719C30.8161 25.3471 30.3985 24.8913 30.1035 24.3047C29.8118 23.7147 29.666 23.0237 29.666 22.2315C29.666 21.4493 29.8118 20.7599 30.1035 20.1634C30.3985 19.5668 30.8095 19.1011 31.3365 18.7663C31.8668 18.4316 32.4866 18.2642 33.1958 18.2642C33.6267 18.2642 34.0443 18.3355 34.4487 18.478C34.853 18.6205 35.216 18.8442 35.5375 19.1491C35.859 19.4541 36.1125 19.8501 36.2981 20.3374C36.4837 20.8213 36.5765 21.4096 36.5765 22.1023V22.6293H30.5062V21.5156H35.1199C35.1199 21.1245 35.0403 20.7782 34.8812 20.4766C34.7221 20.1716 34.4984 19.9313 34.21 19.7557C33.925 19.58 33.5903 19.4922 33.2058 19.4922C32.7882 19.4922 32.4236 19.5949 32.112 19.8004C31.8038 20.0026 31.5652 20.2678 31.3961 20.5959C31.2304 20.9207 31.1475 21.2737 31.1475 21.6548V22.5249C31.1475 23.0353 31.237 23.4695 31.416 23.8274C31.5983 24.1854 31.8519 24.4588 32.1767 24.6477C32.5015 24.8333 32.881 24.9261 33.3152 24.9261C33.5969 24.9261 33.8538 24.8864 34.0858 24.8068C34.3178 24.724 34.5183 24.6013 34.6873 24.4389C34.8564 24.2765 34.9856 24.076 35.0751 23.8374L36.4821 24.0909C36.3694 24.5052 36.1672 24.8681 35.8755 25.1797C35.5872 25.4879 35.2243 25.7282 34.7868 25.9006C34.3526 26.0696 33.8571 26.1541 33.3002 26.1541ZM40.4482 26.169C39.9643 26.169 39.5268 26.0795 39.1357 25.9006C38.7446 25.7183 38.4347 25.4548 38.206 25.1101C37.9806 24.7654 37.8679 24.3428 37.8679 23.8423C37.8679 23.4115 37.9508 23.0568 38.1165 22.7784C38.2822 22.5 38.5059 22.2796 38.7876 22.1172C39.0694 21.9548 39.3842 21.8321 39.7322 21.7493C40.0803 21.6664 40.4349 21.6035 40.7962 21.5604C41.2536 21.5073 41.6248 21.4643 41.9098 21.4311C42.1948 21.3946 42.402 21.3366 42.5312 21.2571C42.6605 21.1776 42.7251 21.0483 42.7251 20.8693V20.8345C42.7251 20.4003 42.6025 20.0639 42.3572 19.8253C42.1153 19.5866 41.754 19.4673 41.2734 19.4673C40.773 19.4673 40.3786 19.5784 40.0902 19.8004C39.8052 20.0192 39.608 20.2628 39.4986 20.5312L38.1016 20.2131C38.2673 19.7491 38.5092 19.3745 38.8274 19.0895C39.1489 18.8011 39.5185 18.5923 39.9361 18.4631C40.3537 18.3305 40.7929 18.2642 41.2536 18.2642C41.5585 18.2642 41.8816 18.3007 42.223 18.3736C42.5677 18.4432 42.8892 18.5724 43.1875 18.7614C43.4891 18.9503 43.736 19.2204 43.9283 19.5717C44.1205 19.9197 44.2166 20.3722 44.2166 20.929V26H42.7649V24.956H42.7053C42.6091 25.1482 42.465 25.3371 42.2727 25.5227C42.0805 25.7083 41.8336 25.8625 41.532 25.9851C41.2304 26.1077 40.8691 26.169 40.4482 26.169ZM40.7713 24.9759C41.1823 24.9759 41.5336 24.8946 41.8253 24.7322C42.1203 24.5698 42.344 24.3577 42.4964 24.0959C42.6522 23.8307 42.7301 23.5473 42.7301 23.2457V22.2614C42.6771 22.3144 42.5743 22.3641 42.4219 22.4105C42.2727 22.4536 42.102 22.4917 41.9098 22.5249C41.7176 22.5547 41.5303 22.5829 41.348 22.6094C41.1657 22.6326 41.0133 22.6525 40.8906 22.669C40.6023 22.7055 40.3388 22.7668 40.1001 22.853C39.8648 22.9392 39.6759 23.0634 39.5334 23.2259C39.3942 23.3849 39.3246 23.5971 39.3246 23.8622C39.3246 24.2301 39.4605 24.5085 39.7322 24.6974C40.004 24.883 40.3504 24.9759 40.7713 24.9759ZM46.1966 26V18.3636H47.6333V19.5767H47.7129C47.8521 19.1657 48.0974 18.8426 48.4487 18.6072C48.8033 18.3686 49.2044 18.2493 49.6518 18.2493C49.7446 18.2493 49.854 18.2526 49.9799 18.2592C50.1092 18.2659 50.2103 18.2741 50.2832 18.2841V19.706C50.2235 19.6894 50.1175 19.6712 49.965 19.6513C49.8126 19.6281 49.6601 19.6165 49.5076 19.6165C49.1563 19.6165 48.8431 19.6911 48.568 19.8402C48.2962 19.986 48.0808 20.1899 47.9217 20.4517C47.7626 20.7102 47.6831 21.0052 47.6831 21.3366V26H46.1966ZM54.5128 26.1541C53.7737 26.1541 53.1373 25.9867 52.6037 25.652C52.0734 25.3139 51.6657 24.8482 51.3807 24.255C51.0956 23.6617 50.9531 22.9822 50.9531 22.2166C50.9531 21.4411 51.099 20.7566 51.3906 20.1634C51.6823 19.5668 52.0933 19.1011 52.6236 18.7663C53.1539 18.4316 53.7786 18.2642 54.4979 18.2642C55.0779 18.2642 55.5949 18.3719 56.049 18.5874C56.5031 18.7995 56.8693 19.0978 57.1477 19.4822C57.4295 19.8667 57.5968 20.3158 57.6499 20.8295H56.2031C56.1236 20.4716 55.9413 20.1634 55.6562 19.9048C55.3745 19.6463 54.9967 19.517 54.5227 19.517C54.1084 19.517 53.7455 19.6264 53.4339 19.8452C53.1257 20.0606 52.8854 20.3688 52.7131 20.7699C52.5407 21.1676 52.4545 21.6383 52.4545 22.1818C52.4545 22.7386 52.5391 23.2192 52.7081 23.6236C52.8771 24.0279 53.1158 24.3411 53.424 24.5632C53.7356 24.7853 54.1018 24.8963 54.5227 24.8963C54.8045 24.8963 55.0597 24.8449 55.2884 24.7422C55.5204 24.6361 55.7143 24.4853 55.87 24.2898C56.0291 24.0942 56.1402 23.8589 56.2031 23.5838H57.6499C57.5968 24.0777 57.4361 24.5185 57.1676 24.9062C56.8991 25.294 56.5395 25.599 56.0888 25.821C55.6413 26.0431 55.116 26.1541 54.5128 26.1541ZM60.726 21.4659V26H59.2395V15.8182H60.7061V19.6065H60.8006C60.9796 19.1955 61.253 18.8691 61.6209 18.6271C61.9888 18.3852 62.4694 18.2642 63.0627 18.2642C63.5864 18.2642 64.0437 18.3719 64.4348 18.5874C64.8292 18.8028 65.1342 19.1243 65.3496 19.5518C65.5684 19.9761 65.6777 20.5064 65.6777 21.1428V26H64.1912V21.3217C64.1912 20.7616 64.0471 20.3274 63.7587 20.0192C63.4703 19.7076 63.0693 19.5518 62.5556 19.5518C62.2042 19.5518 61.8894 19.6264 61.611 19.7756C61.3359 19.9247 61.1188 20.1435 60.9597 20.4318C60.8039 20.7169 60.726 21.0616 60.726 21.4659Z" fill="#161616"/>
</svg>
